<?xml version="1.0" encoding="UTF-8"?>
<svg version="1.1" xmlns="http://www.w3.org/2000/svg" width="512" height="512">
<path d="M0 0 C25.55437479 23.787662 42.9961423 56.70068954 44.49169922 91.93701172 C44.88155602 103.96438513 44.47447603 115.53533833 42.45581055 127.40161133 C40.14927554 141.04006998 41.32192578 148.75974963 49 160.3125 C59.95649217 177.0805657 70.47316822 194.14862375 79.8125 211.875 C80.34987793 212.88304687 80.88725586 213.89109375 81.44091797 214.9296875 C87.52448436 226.72667198 87.52448436 226.72667198 87.375 232.1875 C85.38619997 234.92275572 83.28102061 235.76982826 80.09375 236.6875 C79.25650391 236.93298584 78.41925781 237.17847168 77.55664062 237.43139648 C76.67169922 237.68091064 75.78675781 237.9304248 74.875 238.1875 C73.97458984 238.45312744 73.07417969 238.71875488 72.14648438 238.99243164 C67.41477105 240.37706332 62.69226507 241.57122327 57.875 242.625 C54.4127125 243.55883464 52.57045166 244.46369841 50.5 247.4375 C49.28352709 251.49240971 49.5587398 252.50243895 51.4921875 256.109375 C54.45899176 263.09317971 53.79356261 271.1863977 51.375 278.1875 C50.715 279.1775 50.055 280.1675 49.375 281.1875 C49.67685427 284.14567184 50.04218829 286.52187658 51.375 289.1875 C51.875 291.9375 51.875 291.9375 51.375 295.1875 C49.29526338 297.51328996 46.84516246 299.29524304 44.375 301.1875 C40.3623392 304.93846553 38.47147053 306.8211346 38.2421875 312.4453125 C38.20226193 320.58490332 38.20226193 320.58490332 38.875 328.6875 C40.04750989 337.79169444 41.25998114 348.97730364 36.375 357.1875 C32.79047427 361.35617066 29.80561243 363.31036108 24.375 364.1875 C22.65003246 364.26102066 20.92250298 364.28543862 19.19604492 364.26928711 C18.18696579 364.2627562 17.17788666 364.25622528 16.13822937 364.24949646 C15.05491837 364.23806107 13.97160736 364.22662567 12.85546875 364.21484375 C10.52929845 364.20218188 8.20312648 364.18982211 5.87695312 364.17773438 C2.23505384 364.15309233 -1.40675715 364.12528475 -5.04858398 364.09155273 C-36.66258214 362.82256735 -36.66258214 362.82256735 -64.625 375.1875 C-70.24260607 383.61390911 -68.80556599 397.61191781 -68.8125 407.375 C-68.8137085 408.94701172 -68.8137085 408.94701172 -68.81494141 410.55078125 C-68.74325944 421.12785383 -68.12926288 431.59797961 -67.625 442.1875 C-144.515 442.1875 -221.405 442.1875 -300.625 442.1875 C-299.86548215 438.38991077 -299.36266104 436.30949947 -297.69140625 433.0546875 C-297.29469727 432.26263916 -296.89798828 431.47059082 -296.48925781 430.65454102 C-296.05967773 429.79916748 -295.63009766 428.94379395 -295.1875 428.0625 C-285.72439542 408.65351444 -278.5265539 388.21299464 -273.625 367.1875 C-273.41617188 366.31383789 -273.20734375 365.44017578 -272.9921875 364.54003906 C-267.21085294 339.64919833 -266.11558815 312.74209041 -279.625 290.1875 C-281.5410795 287.24904776 -283.48877155 284.33800562 -285.46386719 281.43920898 C-322.98911178 226.02674732 -347.80244265 160.63187896 -335 93.125 C-325.04941557 45.73193799 -299.11090331 2.58651954 -258.71777344 -24.44775391 C-253.49970835 -27.85057517 -248.12113038 -30.87953019 -242.625 -33.8125 C-241.55507812 -34.40546875 -240.48515625 -34.9984375 -239.3828125 -35.609375 C-222.88369308 -44.38302439 -205.02038301 -49.0648352 -186.625 -51.8125 C-185.87621582 -51.92964355 -185.12743164 -52.04678711 -184.35595703 -52.16748047 C-119.04169895 -61.94210704 -49.27408134 -44.69162808 0 0 Z " fill="#1C1C1A" transform="translate(381.625,61.8125)"/>
</svg>
