<?xml version="1.0" encoding="UTF-8"?>
<svg version="1.1" xmlns="http://www.w3.org/2000/svg" width="512" height="512">
<path d="M0 0 C19.34357371 16.51124647 33.37829459 35.80752851 41.6640625 59.91015625 C41.89456299 60.57257324 42.12506348 61.23499023 42.36254883 61.91748047 C46.48827589 74.67193158 47.80197728 87.35390868 47.64453125 100.69140625 C47.63891305 102.1258499 47.63465353 103.56029943 47.63166809 104.99475098 C47.62039372 108.71011183 47.59108464 112.42510211 47.55755615 116.14031982 C47.52647191 119.95547476 47.51308217 123.77069154 47.49804688 127.5859375 C47.46619155 135.0275099 47.41521623 142.46878052 47.3515625 149.91015625 C48.60098633 150.2148584 49.85041016 150.51956055 51.13769531 150.83349609 C68.02536812 154.9519626 81.10385209 165.08969155 93.3515625 176.91015625 C94.0321875 177.53921875 94.7128125 178.16828125 95.4140625 178.81640625 C113.34582058 195.78753443 121.71678428 222.08776932 122.5703125 246.19140625 C123.70161725 296.49818046 100.91431749 342.83225928 69.3515625 380.91015625 C68.91231445 381.45091797 68.47306641 381.99167969 68.02050781 382.54882812 C55.97225787 397.36267925 42.43275014 411.18817395 27.3515625 422.91015625 C25.49445704 424.49004162 23.64046921 426.07359655 21.7890625 427.66015625 C7.58631115 439.47144175 -7.77054746 449.51032154 -23.6484375 458.91015625 C-24.3899707 459.34924316 -25.13150391 459.78833008 -25.89550781 460.24072266 C-35.60948701 465.93275025 -45.63947433 470.9524049 -55.7734375 475.84765625 C-56.92408691 476.40388672 -58.07473633 476.96011719 -59.26025391 477.53320312 C-62.37705853 479.02152641 -65.50674331 480.47525299 -68.6484375 481.91015625 C-69.76943848 482.44406982 -69.76943848 482.44406982 -70.91308594 482.98876953 C-77.30883875 485.77921279 -82.25918046 485.1827232 -88.63037109 482.79052734 C-92.07516354 481.30605118 -95.45603449 479.72441574 -98.8359375 478.09765625 C-100.07988601 477.50766034 -101.32394688 476.91790129 -102.56811523 476.32836914 C-125.82168606 465.23377885 -147.98111037 452.31422066 -168.6484375 436.91015625 C-169.18629883 436.51119141 -169.72416016 436.11222656 -170.27832031 435.70117188 C-220.66543581 398.1602016 -265.26597777 345.6965314 -278.6484375 282.91015625 C-278.81069824 282.15879395 -278.97295898 281.40743164 -279.14013672 280.63330078 C-285.40669647 250.41283257 -282.29525645 218.34192421 -265.6484375 191.91015625 C-263.16504048 188.39482338 -260.48489683 185.14383178 -257.6484375 181.91015625 C-257.04644531 181.16507813 -256.44445312 180.42 -255.82421875 179.65234375 C-245.29483714 166.98176713 -228.59760131 155.44999314 -212.6484375 150.91015625 C-211.3284375 150.91015625 -210.0084375 150.91015625 -208.6484375 150.91015625 C-208.65843025 149.78620956 -208.65843025 149.78620956 -208.66862488 148.63955688 C-208.72934927 141.49313756 -208.77471775 134.34684759 -208.80387402 127.20023537 C-208.8193686 123.52823284 -208.8403 119.85644775 -208.87475586 116.18457031 C-209.05231343 96.72325335 -209.03059349 77.96822168 -202.5234375 59.34765625 C-202.2248584 58.47761963 -201.9262793 57.60758301 -201.61865234 56.71118164 C-195.14592718 38.56603061 -184.81257647 23.88220266 -171.6484375 9.91015625 C-171.03742188 9.2346875 -170.42640625 8.55921875 -169.796875 7.86328125 C-154.77579001 -8.1165964 -133.53641138 -18.36099169 -112.6484375 -24.08984375 C-111.47410156 -24.42886719 -110.29976562 -24.76789062 -109.08984375 -25.1171875 C-71.94565211 -33.94554411 -29.41843332 -24.13018445 0 0 Z M-154.0546875 33.9765625 C-175.6908002 58.44752732 -180.02237382 86.54793113 -179.85424805 118.20361328 C-179.83572912 121.82591629 -179.83374064 125.44796659 -179.83398438 129.0703125 C-179.82907762 131.36849181 -179.82325302 133.6666694 -179.81640625 135.96484375 C-179.81529343 137.05006317 -179.8141806 138.13528259 -179.81303406 139.25338745 C-179.80665421 140.24597565 -179.80027435 141.23856384 -179.79370117 142.26123047 C-179.78988937 143.1375412 -179.78607758 144.01385193 -179.78215027 144.91671753 C-179.86811979 146.90987314 -179.86811979 146.90987314 -178.6484375 147.91015625 C-176.67422039 148.20618233 -174.69899644 148.49658733 -172.7199707 148.75854492 C-155.66332331 151.06385612 -140.69964682 156.68956406 -125.6484375 164.91015625 C-124.60171875 165.47605469 -123.555 166.04195312 -122.4765625 166.625 C-107.14751156 175.24252202 -92.90382459 186.28893671 -80.6484375 198.91015625 C-77.56840143 197.55387139 -75.70389283 196.08568508 -73.4609375 193.59765625 C-63.15026135 183.03737341 -50.33144912 174.39084449 -37.6484375 166.91015625 C-37.01534668 166.53407227 -36.38225586 166.15798828 -35.72998047 165.77050781 C-27.53425311 160.97643929 -19.19727879 157.11395636 -10.2109375 154.03515625 C-9.4264624 153.76106934 -8.6419873 153.48698242 -7.83374023 153.20458984 C0.68445672 150.44872775 9.52602109 149.26235463 18.3515625 147.91015625 C18.45437294 140.15880892 18.52360866 132.40764211 18.57128906 124.65576172 C18.59120056 122.02776521 18.61833966 119.39981178 18.65332031 116.77197266 C18.94150745 94.5391825 17.65563421 74.88014039 7.3515625 54.91015625 C6.51431641 53.27433594 6.51431641 53.27433594 5.66015625 51.60546875 C1.76030257 44.4934386 -2.99705318 38.70121357 -8.6484375 32.91015625 C-9.4734375 32.04390625 -10.2984375 31.17765625 -11.1484375 30.28515625 C-11.9734375 29.50140625 -12.7984375 28.71765625 -13.6484375 27.91015625 C-14.52628906 27.04003906 -14.52628906 27.04003906 -15.421875 26.15234375 C-34.45315618 8.11153817 -59.53274403 1.37562251 -85.21875 1.69921875 C-111.70033365 2.4489595 -135.85866004 15.12694209 -154.0546875 33.9765625 Z M-100.6484375 280.91015625 C-106.77624428 289.05883547 -108.66163438 296.75253693 -107.6484375 306.91015625 C-105.57927364 315.53373736 -100.54430709 322.45189691 -93.2109375 327.41015625 C-92.3653125 327.90515625 -91.5196875 328.40015625 -90.6484375 328.91015625 C-92.25647615 334.42239433 -94.76311138 339.29004955 -97.40234375 344.359375 C-97.86325912 345.25380814 -98.3241745 346.14824127 -98.79905701 347.06977844 C-100.26564011 349.91451396 -101.73789711 352.75625976 -103.2109375 355.59765625 C-104.68679258 358.4501432 -106.16139643 361.30325946 -107.63352966 364.15766907 C-108.54822866 365.93068006 -109.46519782 367.70252208 -110.38465881 369.47306824 C-111.00551613 370.67495537 -111.00551613 370.67495537 -111.63891602 371.90112305 C-112.00372574 372.60472458 -112.36853546 373.30832611 -112.74440002 374.0332489 C-113.76734989 376.05559622 -113.76734989 376.05559622 -114.6484375 378.91015625 C-88.2484375 378.91015625 -61.8484375 378.91015625 -34.6484375 378.91015625 C-36.04041931 375.43020171 -37.45124993 372.17610293 -39.1171875 368.83984375 C-39.84349365 367.3844519 -39.84349365 367.3844519 -40.58447266 365.8996582 C-41.10058105 364.87187256 -41.61668945 363.84408691 -42.1484375 362.78515625 C-42.67872559 361.72578857 -43.20901367 360.6664209 -43.75537109 359.57495117 C-47.58123738 351.96034629 -51.49789753 344.39810735 -55.52539062 336.88818359 C-57.44699353 333.28800403 -59.23934791 329.75106175 -60.6484375 325.91015625 C-60.0503125 325.64074219 -59.4521875 325.37132812 -58.8359375 325.09375 C-52.48354956 321.65665438 -49.50616041 315.3680347 -47.33984375 308.7421875 C-45.48821092 301.15781573 -46.18524707 293.92250283 -49.6484375 286.91015625 C-54.85039552 278.5017003 -61.15364245 273.61116006 -70.6484375 270.91015625 C-82.29592128 269.63898416 -92.63799383 272.00058115 -100.6484375 280.91015625 Z " fill="#000000" transform="translate(335.6484375,27.08984375)"/>
</svg>
