<?xml version="1.0" encoding="UTF-8"?>
<svg version="1.1" xmlns="http://www.w3.org/2000/svg" width="512" height="512">
<path d="M0 0 C2.39544071 0.02377061 4.78977214 0.02050586 7.18530273 0.01391602 C28.43186487 0.05190144 46.40824076 3.92931925 62.31225586 18.85961914 C74.29957982 31.29818443 80.05562571 45.98379407 79.92944336 63.10571289 C79.92952896 64.13222961 79.92961456 65.15874634 79.92970276 66.21636963 C79.92643913 69.5272789 79.90765212 72.83784184 79.88647461 76.14868164 C79.87694177 78.42073529 79.86750189 80.69278933 79.8581543 82.96484375 C79.82559106 89.42220275 79.76572045 95.87909923 79.69897461 102.33618164 C79.68800751 103.59144653 79.68800751 103.59144653 79.67681885 104.87207031 C79.63699815 109.38221269 79.5611339 113.88961489 79.44897461 118.39868164 C79.43503662 119.41615479 79.42109863 120.43362793 79.40673828 121.48193359 C79.12084733 129.69615535 76.71794258 137.47560757 70.69897461 143.33618164 C67.45658533 145.50534575 64.10034173 147.42911713 60.69897461 149.33618164 C59.99385742 149.75512695 59.28874023 150.17407227 58.56225586 150.60571289 C53.96001701 153.33618164 53.96001701 153.33618164 51.69897461 153.33618164 C51.64422344 154.13223659 51.58947227 154.92829153 51.53306198 155.74846935 C50.97923002 163.40643118 50.19435441 170.99713162 49.19604492 178.60888672 C48.97378738 180.33347107 48.97378738 180.33347107 48.74703979 182.09289551 C48.26148024 185.84775874 47.77014837 189.60182604 47.27709961 193.35571289 C47.10773643 194.64668066 46.93837326 195.93764843 46.76387787 197.26773643 C46.05168092 202.69106191 45.33733303 208.11409709 44.61748123 213.53641224 C43.59240296 221.25875944 42.58048522 228.98257722 41.58641744 236.70897943 C40.88226193 242.17356424 40.16323829 247.63606992 39.43327403 253.09726638 C38.99931664 256.34683702 38.5737212 259.59713161 38.1601944 262.84937477 C37.69806485 266.47240201 37.21170491 270.09140489 36.71948242 273.71044922 C36.58941803 274.77400131 36.45935364 275.83755341 36.3253479 276.93333435 C35.22151427 284.76351279 32.91856158 290.34656517 27.07397461 295.77368164 C22.63186653 298.69612117 18.43928327 298.51192239 13.30444336 298.53930664 C12.47946854 298.54500671 11.65449371 298.55070679 10.80451965 298.55657959 C9.05865763 298.56602287 7.31277784 298.5725609 5.56689453 298.57641602 C2.90682543 298.5861075 0.24753383 298.61713076 -2.41235352 298.64868164 C-4.11091665 298.65521354 -5.8094853 298.66046327 -7.50805664 298.66430664 C-8.29888138 298.67665344 -9.08970612 298.68900024 -9.90449524 298.70172119 C-15.57216228 298.67906193 -19.3901674 297.38456319 -24.09399414 294.07446289 C-33.4614804 284.49706097 -32.68600165 262.74367665 -34.33502388 250.11651421 C-34.81462304 246.44559609 -35.29990778 242.77546729 -35.78660583 239.10548401 C-36.99234976 230.00552972 -38.18957718 220.90445953 -39.38513184 211.80316162 C-40.40039728 204.07536313 -41.41994385 196.34814994 -42.44535637 188.62169075 C-42.9225184 185.01333522 -43.39353499 181.40421112 -43.86439514 177.79502869 C-44.15748448 175.58271083 -44.45087926 173.37043341 -44.74462891 171.15820312 C-44.8729863 170.16122406 -45.00134369 169.164245 -45.1335907 168.13705444 C-45.88245911 159.27423044 -45.88245911 159.27423044 -49.90161133 151.82641602 C-50.83408691 151.38265625 -50.83408691 151.38265625 -51.78540039 150.92993164 C-52.47093994 150.58236816 -53.15647949 150.23480469 -53.86279297 149.87670898 C-54.58490967 149.53333496 -55.30702637 149.18996094 -56.05102539 148.83618164 C-64.80702882 144.2951718 -70.12137904 140.01001914 -73.30102539 130.33618164 C-73.78821996 127.29642408 -73.89044684 124.28201418 -73.96899414 121.20727539 C-74.00139694 120.30673935 -74.03379974 119.40620331 -74.06718445 118.4783783 C-74.16665519 115.43114309 -74.23808758 112.38438598 -74.30102539 109.33618164 C-74.32408752 108.23010559 -74.34714966 107.12402954 -74.37091064 105.98443604 C-74.50782809 98.71221492 -74.57295362 91.44139545 -74.59619141 84.16796875 C-74.60780529 81.64252156 -74.62840169 79.11710064 -74.65771484 76.59179688 C-74.91411356 54.3624576 -73.49698898 36.49733256 -57.61132812 19.55029297 C-41.69384361 3.27390842 -21.84741956 -0.23110652 0 0 Z " fill="#000000" transform="translate(253.301025390625,115.663818359375)"/>
<path d="M0 0 C27.6218208 5.70450647 55.85954963 15.01088407 78 33 C78.9075 33.71542969 79.815 34.43085938 80.75 35.16796875 C91.67277686 44.30913414 100.89313725 57.66916127 103 72 C104.16824946 91.28569192 100.04433021 106.26383269 87.42578125 121.0078125 C48.63052527 161.67203701 -18.26375507 169.57399583 -71.51904297 171.07080078 C-127.81447864 172.35885247 -199.83279221 165.35237604 -242.91137695 124.99829102 C-254.78579155 113.60321058 -262.88137367 100.65800076 -263.29223633 83.82006836 C-263.45609456 65.05928823 -256.6018773 51.30998043 -243.89453125 37.75390625 C-224.94033419 19.45217725 -188.63994741 1.65840971 -162.15112305 0.9206543 C-161.44125244 0.94683838 -160.73138184 0.97302246 -160 1 C-159.1428256 6.92612994 -158.28839678 12.85264673 -157.43652344 18.77954102 C-157.14626515 20.79625172 -156.85525344 22.81285414 -156.56347656 24.8293457 C-156.14450701 27.72579339 -155.72823775 30.62261816 -155.3125 33.51953125 C-155.18125732 34.42274612 -155.05001465 35.325961 -154.91479492 36.25654602 C-154.79467041 37.09719101 -154.6745459 37.937836 -154.55078125 38.80395508 C-154.44419189 39.54341873 -154.33760254 40.28288239 -154.2277832 41.04475403 C-154 43 -154 43 -154 46 C-154.70382813 46.20568604 -155.40765625 46.41137207 -156.1328125 46.62329102 C-182.84004742 54.46559006 -182.84004742 54.46559006 -207 68 C-207.61488281 68.41894531 -208.22976562 68.83789062 -208.86328125 69.26953125 C-212.95996147 72.30900367 -215.73841267 76.05799248 -217 81 C-215.66860853 88.32265307 -209.75019365 92.72610767 -204 97 C-150.67675525 130.77347699 -70.69172967 130.04637818 -10.96875 117.3828125 C10.82839843 112.48055808 40.21752889 105.11241723 55 87 C56.72629226 83.10360334 56.72629226 83.10360334 56.671875 78.9453125 C48.57256313 62.95260347 26.53995642 56.30060496 10.67871094 50.85742188 C5.16288775 49.09187585 -0.42129917 47.55290618 -6 46 C-5.30782833 40.41304957 -4.61401381 34.82630649 -3.91870117 29.23974609 C-3.68257632 27.34071317 -3.4468941 25.44162516 -3.21166992 23.54248047 C-2.87275739 20.80681863 -2.53223385 18.07136132 -2.19140625 15.3359375 C-2.08719864 14.49195404 -1.98299103 13.64797058 -1.87562561 12.77841187 C-1.34093168 8.5000529 -0.74800393 4.24770105 0 0 Z " fill="#000000" transform="translate(336,329)"/>
<path d="M0 0 C10.30945259 9.78706602 16.20685056 20.35352666 16.71118164 34.60766602 C16.91320505 49.10673102 13.15298463 61.03402444 3.27734375 71.9921875 C-7.69940575 82.47180161 -20.36374028 86.24351529 -35.19921875 85.98828125 C-48.17509575 85.05935941 -59.91191411 79.3010738 -68.69140625 69.73828125 C-78.63833309 56.96060844 -81.30024424 43.56966952 -79.69140625 27.73828125 C-78.08785174 19.15119943 -74.18840299 12.43668346 -68.69140625 5.73828125 C-68.11777344 5.02800781 -67.54414063 4.31773438 -66.953125 3.5859375 C-49.98193686 -15.34765784 -19.04704454 -16.00615209 0 0 Z " fill="#000000" transform="translate(287.69140625,23.26171875)"/>
</svg>
