<?xml version="1.0" encoding="UTF-8"?>
<svg version="1.1" xmlns="http://www.w3.org/2000/svg" width="512" height="512">
<path d="M0 0 C19.35612402 16.21492167 30.71783436 37.5459454 33.35400391 62.68164062 C33.68092785 69.00521035 33.58843229 75.34039751 33.54931641 81.66992188 C33.54557733 83.46738018 33.5427346 85.26484055 33.54074097 87.06230164 C33.53317483 91.74919453 33.51358829 96.43595966 33.49133301 101.12280273 C33.47072168 105.92299675 33.46170685 110.7232118 33.45166016 115.5234375 C33.43033443 124.90956075 33.39628536 134.29558998 33.35400391 143.68164062 C34.13412842 143.66069336 34.91425293 143.63974609 35.71801758 143.61816406 C39.32570996 143.53392326 42.93319437 143.48264147 46.54150391 143.43164062 C47.76804687 143.398125 48.99458984 143.36460937 50.25830078 143.33007812 C62.88143868 143.1968524 73.32208223 145.91762792 83.35400391 153.68164062 C84.38525391 154.40351563 85.41650391 155.12539062 86.47900391 155.86914062 C92.83988528 161.36182371 96.94988469 169.76218909 99.35400391 177.68164062 C99.35400391 178.67164063 99.35400391 179.66164063 99.35400391 180.68164062 C98.22940073 180.68402898 97.10479755 180.68641733 95.94611549 180.68887806 C68.57028593 180.74769691 41.19454421 180.82359459 13.81881142 180.91735554 C0.58006207 180.96230323 -12.65866044 181.00172035 -25.89746094 181.02807617 C-37.43764511 181.05106446 -48.97774427 181.08447196 -60.51786101 181.13034219 C-66.62711763 181.154263 -72.73629012 181.17299933 -78.8455925 181.17925453 C-84.59936056 181.18531043 -90.35291339 181.20532901 -96.10660172 181.23591614 C-98.21483617 181.24468818 -100.32309875 181.24842068 -102.43135071 181.24664879 C-105.3182806 181.24498898 -108.2045598 181.26175566 -111.09140015 181.28291321 C-111.91828036 181.27806563 -112.74516057 181.27321806 -113.59709775 181.26822358 C-124.32934702 181.39730337 -133.59025187 184.93610157 -141.39990234 192.34570312 C-148.55490443 200.20006631 -150.78917166 207.97875179 -150.82299805 218.42236328 C-150.82956924 219.30421295 -150.83614044 220.18606262 -150.84291077 221.09463501 C-150.86261183 224.01165864 -150.87430081 226.92863079 -150.88427734 229.84570312 C-150.88835287 230.84454906 -150.8924284 231.843395 -150.89662743 232.872509 C-150.91747703 238.16191144 -150.93178217 243.45128804 -150.94116211 248.74072266 C-150.95220926 254.18788152 -150.98659298 259.63462995 -151.02633381 265.08164406 C-151.05255751 269.28372933 -151.06085918 273.48571777 -151.06444359 277.68787766 C-151.06929659 279.69480529 -151.08087364 281.70172897 -151.09948158 283.7085762 C-151.21949088 297.51214704 -150.80348144 309.20884531 -140.64599609 319.68164062 C-131.40465122 327.24274098 -121.63222258 329.71281748 -109.84130859 329.99804688 C-109.1173288 330.01882797 -108.393349 330.03960907 -107.64743042 330.0610199 C-105.35537371 330.12592915 -103.06321136 330.18512499 -100.77099609 330.24414062 C-99.20848557 330.28738174 -97.64598537 330.33099774 -96.08349609 330.375 C-92.27110184 330.48154959 -88.4586023 330.58297857 -84.64599609 330.68164062 C-84.64012985 331.31169006 -84.63426361 331.9417395 -84.6282196 332.59088135 C-84.56431749 339.14470619 -84.4799059 345.69803853 -84.38354492 352.25146484 C-84.35027733 354.69768788 -84.32225118 357.14398802 -84.29956055 359.59033203 C-84.26604902 363.10547767 -84.21373334 366.61991557 -84.15771484 370.13476562 C-84.14812996 371.77714203 -84.14812996 371.77714203 -84.13835144 373.45269775 C-84.1086602 374.98383209 -84.1086602 374.98383209 -84.07836914 376.54589844 C-84.06171455 377.89158905 -84.06171455 377.89158905 -84.04472351 379.26446533 C-83.57370162 382.11990597 -82.53411975 383.52940694 -80.64599609 385.68164062 C-76.67819845 385.77750688 -74.58083283 385.41567271 -71.41601562 382.93066406 C-68.94204328 380.53294962 -66.56382762 378.07098977 -64.20849609 375.55664062 C-62.58722697 373.86420645 -60.96355651 372.17406911 -59.33740234 370.48632812 C-58.54197021 369.65818604 -57.74653809 368.83004395 -56.92700195 367.97680664 C-54.95112293 365.98866164 -52.94246285 364.14207111 -50.81005859 362.32617188 C-45.03415033 357.39455129 -39.7906755 351.8944629 -34.45849609 346.49414062 C-32.34297432 344.3518522 -30.22403305 342.21302943 -28.10302734 340.07617188 C-27.6289595 339.59380569 -27.15489166 339.11143951 -26.66645813 338.61445618 C-25.34564192 337.28403627 -23.9963274 335.9820936 -22.64599609 334.68164062 C-22.00158569 333.97849228 -21.35717529 333.27534393 -20.6932373 332.55088806 C-16.02622822 329.68803797 -11.61777814 330.15637039 -6.24633789 330.22753906 C-5.09468643 330.22695496 -3.94303497 330.22637085 -2.75648499 330.22576904 C1.04757902 330.22855426 4.85085813 330.25966877 8.65478516 330.29101562 C11.29322379 330.29847641 13.93166798 330.30417011 16.57011414 330.3081665 C22.80329294 330.32058699 29.03619031 330.3533957 35.26924533 330.39356446 C42.36713078 330.43831131 49.46502985 330.46027648 56.5630213 330.4803462 C71.16016052 330.52212939 85.75707827 330.59246321 100.35400391 330.68164062 C100.45398047 335.73122591 100.52598657 340.78021665 100.57373047 345.83056641 C100.5936639 347.54323379 100.62082096 349.25583477 100.65576172 350.96826172 C100.95629045 366.091928 99.21623964 377.58565065 89.35400391 389.68164062 C88.85384766 390.3184375 88.35369141 390.95523437 87.83837891 391.61132812 C79.97000722 400.55265959 67.56520511 404.97925773 55.93332601 405.86622488 C53.44099716 405.93929535 50.9559221 405.95327528 48.46255493 405.94233704 C47.51917688 405.94616258 46.57579882 405.94998813 45.60383356 405.9539296 C42.47053142 405.9641757 39.33741541 405.9602835 36.20410156 405.95629883 C33.94626192 405.96064994 31.68842376 405.96583442 29.43058777 405.9717865 C23.3169161 405.98514455 17.20330638 405.98575873 11.08962297 405.9832232 C5.97792707 405.98215135 0.86624358 405.98704231 -4.24544966 405.99182862 C-16.99758614 406.00354571 -29.74967794 406.00270504 -42.50181396 405.99627181 C-53.55410014 405.99110406 -64.60629814 406.00235756 -75.65856688 406.02137003 C-87.0313971 406.04078263 -98.40417353 406.04870757 -109.77702487 406.04524678 C-116.15225786 406.04343704 -122.52741009 406.04603932 -128.90262985 406.05996132 C-134.89944755 406.07256772 -140.89608918 406.07056883 -146.89290428 406.05755043 C-149.08740105 406.05519127 -151.28191032 406.05789554 -153.47639275 406.06617355 C-170.92901273 406.12723581 -187.32704847 405.25673709 -200.76708984 392.68554688 C-210.53818868 382.26439573 -214.7537895 370.4583668 -214.78643799 356.28329468 C-214.78940911 355.5597626 -214.79238023 354.83623052 -214.79544139 354.09077322 C-214.80408077 351.67752833 -214.80563259 349.26433332 -214.80712891 346.85107422 C-214.81176052 345.11598608 -214.81678564 343.38089895 -214.82217407 341.64581299 C-214.83526849 336.93890148 -214.84173744 332.23200421 -214.84618473 327.52507734 C-214.84912071 324.5804637 -214.85322654 321.63585391 -214.8576889 318.69124222 C-214.87135709 309.46696026 -214.88102663 300.24268716 -214.88489079 291.01839578 C-214.88936765 280.39156466 -214.90690115 269.76486241 -214.93589139 259.13807046 C-214.95755335 250.91022652 -214.96759751 242.68241871 -214.96893191 234.45454657 C-214.96997686 229.54694191 -214.97581823 224.63945849 -214.99375153 219.731884 C-215.01031006 215.1107351 -215.01235018 210.48979758 -215.00361252 205.86862946 C-215.00284625 204.1804739 -215.00713023 202.49230661 -215.01707077 200.80418015 C-215.1130661 183.4739242 -212.39410439 168.87466878 -200.08740234 155.93945312 C-188.74348941 145.44860244 -174.81830681 143.02217654 -159.83349609 143.43164062 C-158.55667969 143.4496875 -157.27986328 143.46773437 -155.96435547 143.48632812 C-152.85740919 143.53287414 -149.75213359 143.59823716 -146.64599609 143.68164062 C-146.65598885 142.13094376 -146.65598885 142.13094376 -146.66618347 140.54891968 C-146.72729794 130.75236264 -146.77211328 120.95584485 -146.80143261 111.15913963 C-146.81701325 106.12391519 -146.83811074 101.08884604 -146.87231445 96.05371094 C-146.90518142 91.18425621 -146.92290609 86.31494979 -146.93062782 81.44539261 C-146.9361227 79.59807632 -146.94685109 77.7507671 -146.96318626 75.90351486 C-147.19939812 48.05544537 -138.82384685 25.49909612 -119.52099609 5.11914062 C-87.4415619 -26.29382333 -34.66370309 -27.7638678 0 0 Z M-91.95849609 38.86914062 C-99.94200378 48.47557903 -103.99683856 59.53614817 -103.87304688 71.93359375 C-103.87328794 72.72753288 -103.87352901 73.52147202 -103.87377739 74.33946991 C-103.87229804 76.8807287 -103.8571294 79.4216851 -103.84130859 81.96289062 C-103.83836387 83.54329284 -103.83632608 85.123697 -103.83520508 86.70410156 C-103.82476747 92.52997788 -103.79684495 98.3558123 -103.77099609 104.18164062 C-103.72974609 117.21664062 -103.68849609 130.25164062 -103.64599609 143.68164062 C-72.62599609 143.68164062 -41.60599609 143.68164062 -9.64599609 143.68164062 C-9.58412109 131.24476563 -9.52224609 118.80789062 -9.45849609 105.99414062 C-9.43118408 102.09255127 -9.40387207 98.19096191 -9.37573242 94.17114258 C-9.36568836 90.62008297 -9.36568836 90.62008297 -9.35966492 87.0690155 C-9.35511078 85.50872721 -9.34467128 83.94844829 -9.32926941 82.38822937 C-9.16861133 65.22949364 -11.11097522 50.21229981 -23.52099609 37.30664062 C-34.1081142 27.32088349 -45.5764323 23.24420198 -60.10693359 23.40820312 C-72.44395106 24.36139432 -83.44649448 29.97022985 -91.95849609 38.86914062 Z " fill="#000000" transform="translate(273.64599609375,100.318359375)"/>
<path d="M0 0 C1.38230042 -0.0030236 2.76459918 -0.00691413 4.14689499 -0.01159257 C7.93100093 -0.02185428 11.71501194 -0.01969543 15.4991256 -0.01541197 C19.58577689 -0.01294145 23.67240551 -0.02196292 27.75904846 -0.02944946 C35.7594098 -0.04218906 43.75973756 -0.0439911 51.76010733 -0.0416492 C58.2634667 -0.03986519 64.76681588 -0.04161747 71.27017403 -0.04587364 C72.19623762 -0.04646883 73.12230121 -0.04706402 74.07642733 -0.04767724 C75.95779848 -0.04888901 77.83916962 -0.05010315 79.72054077 -0.05131962 C97.35778881 -0.06219215 114.99501771 -0.06003393 132.63226683 -0.05393478 C148.76291902 -0.04876492 164.89351083 -0.06002339 181.02415108 -0.07903299 C197.59382535 -0.09841008 214.16347106 -0.10666768 230.73315674 -0.10290974 C240.03310735 -0.10099763 249.33300656 -0.10348639 258.63294792 -0.11762428 C266.54936049 -0.12953732 274.46569002 -0.13094376 282.38210373 -0.11883412 C286.41968457 -0.11294512 290.4571135 -0.11184656 294.49468422 -0.12383652 C298.19392864 -0.134694 301.89289429 -0.13159373 305.59212566 -0.11757483 C307.55749005 -0.11367765 309.52286682 -0.12447605 311.48820204 -0.13587171 C321.75715985 -0.07315265 329.14863298 1.34081805 336.72047424 8.49116516 C342.18912217 14.32010048 342.53118347 19.76104658 342.57350159 27.45063782 C342.58167908 28.27396606 342.58985657 29.09729431 342.59828186 29.9455719 C342.62307279 32.66779364 342.6396382 35.38996334 342.65406799 38.11225891 C342.65939167 39.04490948 342.66471535 39.97756004 342.67020035 40.93847275 C342.69690811 45.87774075 342.7162882 50.81698373 342.73072815 55.75630188 C342.74404972 59.8320519 342.77187291 63.90729918 342.8127594 67.98286438 C342.86223525 72.91532385 342.88686768 77.8473285 342.89395523 82.78002548 C342.90064288 84.65300336 342.91579966 86.52597208 342.93984604 88.39880753 C343.18954101 109.02753572 343.18954101 109.02753572 335.5955658 117.1761322 C329.40542772 123.11202042 322.75040352 123.55461841 314.54345703 123.51898193 C313.06485477 123.52449549 313.06485477 123.52449549 311.55638176 123.53012043 C308.2561274 123.54009397 304.95604173 123.5359509 301.65577698 123.53193665 C299.28864869 123.53632397 296.92152195 123.54162614 294.55439758 123.54777527 C289.4585418 123.55927432 284.3627276 123.56473461 279.26685905 123.56565666 C271.89368958 123.56743223 264.52060461 123.58210717 257.1474619 123.60115183 C245.17709842 123.63197482 233.20673304 123.65614993 221.23634338 123.67402649 C220.16229299 123.67563551 220.16229299 123.67563551 219.0665446 123.67727704 C211.07525363 123.68910096 203.0839619 123.69930665 195.09266663 123.7077179 C192.19329323 123.71079197 189.29391986 123.71388073 186.39454651 123.71699524 C185.67908393 123.71776058 184.96362135 123.71852592 184.22647809 123.71931445 C172.29895123 123.73239351 160.37147932 123.75702744 148.44399315 123.79073864 C140.43368704 123.81283683 132.42355175 123.82056924 124.4132098 123.8183459 C119.43515039 123.82000949 114.45718296 123.83403831 109.47915649 123.85155869 C107.16723866 123.85717038 104.85530186 123.85763228 102.54338264 123.85262108 C99.39231694 123.84650591 96.2418351 123.85866422 93.09082031 123.87542725 C92.1717587 123.86921543 91.25269709 123.86300362 90.30578512 123.85660356 C84.01942996 123.91772492 80.73044353 125.12040696 76.01222229 129.41792297 C75.20953918 130.23744446 74.40685608 131.05696594 73.57984924 131.90132141 C72.68459534 132.80753235 71.78934143 133.71374329 70.86695862 134.64741516 C69.93363252 135.60146733 69.00069171 136.55589657 68.06813049 137.51069641 C62.61995998 143.06282495 57.19608854 148.52525728 51.28126526 153.58052063 C47.13478793 157.24603855 43.34685186 161.29786969 39.49781799 165.27046204 C38.86359924 165.91563782 38.22938049 166.5608136 37.57594299 167.22554016 C37.00891663 167.80940491 36.44189026 168.39326965 35.85768127 168.99482727 C34.38063049 170.26069641 34.38063049 170.26069641 32.38063049 170.26069641 C32.05063049 155.41069641 31.72063049 140.56069641 31.38063049 125.26069641 C28.25131427 124.47836736 26.12635664 124.13001134 22.99855042 124.10298157 C22.14053329 124.09271942 21.28251617 124.08245728 20.39849854 124.07188416 C19.47865677 124.06458282 18.558815 124.05728149 17.61109924 124.04975891 C15.65080446 124.02168836 13.69051811 123.99302388 11.73023987 123.96382141 C8.64943191 123.92260331 5.56878106 123.88570198 2.48780823 123.85932922 C-0.49225597 123.83162769 -3.47161192 123.78575664 -6.45140076 123.73725891 C-7.82205437 123.73237961 -7.82205437 123.73237961 -9.22039795 123.72740173 C-17.06848485 123.57752389 -23.14676024 121.62032915 -28.92822266 116.08273315 C-36.64803567 107.76542886 -35.22101271 96.26769984 -35.18577576 85.70210266 C-35.19101806 83.78835753 -35.19729675 81.87461499 -35.20455933 79.96087646 C-35.21493599 75.960676 -35.21044159 71.96083188 -35.19578552 67.96064758 C-35.17860369 62.85530614 -35.20210006 57.75109085 -35.23727512 52.64587498 C-35.2593224 48.69679422 -35.25778992 44.74797989 -35.24950981 40.79885674 C-35.24869427 38.91754356 -35.25548106 37.03621005 -35.27028084 35.15495491 C-35.40045229 15.61547801 -35.40045229 15.61547801 -29.61936951 8.26069641 C-21.02198502 -0.13861478 -11.45680468 -0.03398595 0 0 Z M51.38063049 27.26069641 C50.83388251 29.86091764 50.83388251 29.86091764 50.99000549 32.68257141 C51.00289612 33.7073761 51.01578674 34.73218079 51.02906799 35.78804016 C51.07934143 37.383255 51.07934143 37.383255 51.13063049 39.01069641 C51.15770081 40.62911438 51.15770081 40.62911438 51.18531799 42.28022766 C51.23241634 44.94128429 51.29817449 47.60053896 51.38063049 50.26069641 C50.8417218 49.92223694 50.30281311 49.58377747 49.74757385 49.23506165 C47.28294266 47.70269365 44.80120219 46.20048224 42.31813049 44.69819641 C41.4705719 44.16516907 40.62301331 43.63214172 39.74977112 43.08296204 C35.66476523 40.63826739 33.2282225 39.26649616 28.38453674 39.23335266 C25.10554239 40.0149009 25.10554239 40.0149009 23.38063049 43.26069641 C22.79717574 46.21816134 22.79717574 46.21816134 23.38063049 49.26069641 C27.57978034 53.17515813 32.55729803 55.71216112 37.56031799 58.43647766 C42.27859625 61.05662793 42.27859625 61.05662793 43.38063049 63.26069641 C42.68195862 63.51979797 41.98328674 63.77889954 41.26344299 64.04585266 C38.09881588 65.37945568 35.22237826 66.96945241 32.25563049 68.69819641 C31.22180237 69.29503235 30.18797424 69.89186829 29.12281799 70.50679016 C26.83313919 71.97127133 25.05489254 73.1395874 23.38063049 75.26069641 C22.98231846 78.44719265 22.77514967 80.38274921 24.63063049 83.07319641 C26.64841319 84.4424061 27.96157936 84.93062839 30.38063049 85.26069641 C32.6530506 84.50814015 32.6530506 84.50814015 34.94313049 83.19819641 C36.2405719 82.50983704 36.2405719 82.50983704 37.56422424 81.80757141 C38.49363831 81.29710266 39.42305237 80.78663391 40.38063049 80.26069641 C41.40285706 79.70897766 42.42508362 79.15725891 43.47828674 78.58882141 C46.11902085 77.1577139 48.75116054 75.71234428 51.38063049 74.26069641 C51.35444641 74.93648743 51.32826233 75.61227844 51.30128479 76.30854797 C51.19723786 79.37569353 51.13228103 82.44246799 51.06813049 85.51069641 C51.02623596 86.57417297 50.98434143 87.63764954 50.94117737 88.73335266 C50.68826054 94.89969779 50.68826054 94.89969779 53.73609924 99.99507141 C56.28663436 101.44956132 56.28663436 101.44956132 59.00563049 101.26069641 C61.91590213 100.03531888 62.75477685 98.94620908 64.38063049 96.26069641 C64.7905222 93.75242926 64.7905222 93.75242926 64.67359924 91.05757141 C64.66393127 90.07788391 64.65426331 89.09819641 64.64430237 88.08882141 C64.61916565 87.07304016 64.59402893 86.05725891 64.56813049 85.01069641 C64.55459534 83.97944641 64.54106018 82.94819641 64.52711487 81.88569641 C64.49180656 79.34349849 64.44249085 76.80236418 64.38063049 74.26069641 C64.90495667 74.55838928 65.42928284 74.85608215 65.96949768 75.16279602 C68.35378995 76.51285802 70.74213596 77.85558407 73.13063049 79.19819641 C73.95563049 79.66677063 74.78063049 80.13534485 75.63063049 80.61811829 C76.42984924 81.0660675 77.22906799 81.51401672 78.05250549 81.97554016 C78.78565979 82.38924866 79.51881409 82.80295715 80.27418518 83.22920227 C82.34803561 84.24473519 84.09957247 84.91114159 86.38063049 85.26069641 C89.1665316 84.32265859 89.1665316 84.32265859 91.38063049 82.26069641 C92.71613896 79.4144205 92.71613896 79.4144205 92.38063049 76.26069641 C88.71149553 71.91025206 84.43102189 69.24494065 79.56813049 66.44819641 C78.8752594 66.04149719 78.18238831 65.63479797 77.46852112 65.21577454 C75.77653997 64.22392352 74.07913158 63.24134043 72.38063049 62.26069641 C73.67005365 61.38239368 74.96235731 60.50832019 76.25563049 59.63569641 C77.06773987 59.08526672 77.87984924 58.53483704 78.71656799 57.96772766 C81.38063049 56.26069641 81.38063049 56.26069641 84.16969299 54.77241516 C89.7541147 51.92389459 89.7541147 51.92389459 92.75563049 46.63569641 C92.61815524 43.26306377 92.61815524 43.26306377 90.88063049 40.76069641 C87.2933175 38.60830861 85.43146224 39.34098184 81.38063049 40.26069641 C78.44517733 41.58390304 75.70529296 43.17297492 72.94313049 44.82319641 C72.21158752 45.2479425 71.48004456 45.6726886 70.72633362 46.11030579 C68.93849292 47.15029155 67.15870388 48.20409818 65.38063049 49.26069641 C65.37128479 48.61519836 65.36193909 47.96970032 65.35231018 47.30464172 C65.29853948 44.37255697 65.21490709 41.44205633 65.13063049 38.51069641 C65.11645081 37.49491516 65.10227112 36.47913391 65.08766174 35.43257141 C64.99368079 29.64228803 64.99368079 29.64228803 62.49000549 24.58882141 C57.6358213 21.53248322 54.76711983 23.07759432 51.38063049 27.26069641 Z M147.38063049 27.26069641 C146.83388251 29.86091764 146.83388251 29.86091764 146.99000549 32.68257141 C147.00289612 33.7073761 147.01578674 34.73218079 147.02906799 35.78804016 C147.07934143 37.383255 147.07934143 37.383255 147.13063049 39.01069641 C147.15770081 40.62911438 147.15770081 40.62911438 147.18531799 42.28022766 C147.23241634 44.94128429 147.29817449 47.60053896 147.38063049 50.26069641 C146.8417218 49.92223694 146.30281311 49.58377747 145.74757385 49.23506165 C143.28294266 47.70269365 140.80120219 46.20048224 138.31813049 44.69819641 C137.4705719 44.16516907 136.62301331 43.63214172 135.74977112 43.08296204 C131.66476523 40.63826739 129.2282225 39.26649616 124.38453674 39.23335266 C121.10554239 40.0149009 121.10554239 40.0149009 119.38063049 43.26069641 C119.21128585 46.7562003 119.21128585 46.7562003 120.38063049 50.26069641 C123.0931059 52.6905948 123.0931059 52.6905948 126.56813049 54.44819641 C127.69606018 55.0811261 128.82398987 55.71405579 129.98609924 56.36616516 C131.10629456 56.99136047 132.22648987 57.61655579 133.38063049 58.26069641 C135.40897374 59.55697224 137.39371555 60.90091092 139.38063049 62.26069641 C138.88136047 62.54791565 138.38209045 62.83513489 137.86769104 63.13105774 C135.59832296 64.44023754 133.33321808 65.7566257 131.06813049 67.07319641 C130.2824469 67.52501282 129.49676331 67.97682922 128.68727112 68.44233704 C127.55128479 69.1045929 127.55128479 69.1045929 126.39234924 69.78022766 C125.34760437 70.38507996 125.34760437 70.38507996 124.28175354 71.00215149 C122.35113131 72.2802249 120.86020348 73.479135 119.38063049 75.26069641 C118.98231846 78.44719265 118.77514967 80.38274921 120.63063049 83.07319641 C122.68980624 84.47049424 123.89734591 84.97133977 126.38063049 85.26069641 C129.18024894 84.24505387 129.18024894 84.24505387 132.06813049 82.63569641 C133.04137268 82.12780579 134.01461487 81.61991516 135.01734924 81.09663391 C139.15092137 78.84021242 143.26858996 76.55608284 147.38063049 74.26069641 C147.35444641 74.93648743 147.32826233 75.61227844 147.30128479 76.30854797 C147.19723786 79.37569353 147.13228103 82.44246799 147.06813049 85.51069641 C147.02623596 86.57417297 146.98434143 87.63764954 146.94117737 88.73335266 C146.6891093 94.90077007 146.6891093 94.90077007 149.73609924 99.99897766 C152.28739215 101.46076409 152.28739215 101.46076409 155.00563049 101.19819641 C157.60376398 100.1726174 158.68331767 99.45894491 160.38063049 97.26069641 C160.79391605 94.74707781 160.79391605 94.74707781 160.67359924 91.93647766 C160.66393127 90.90845032 160.65426331 89.88042297 160.64430237 88.82124329 C160.61916565 87.74938782 160.59402893 86.67753235 160.56813049 85.57319641 C160.55459534 84.48973938 160.54106018 83.40628235 160.52711487 82.28999329 C160.49173693 79.61306236 160.44237238 76.93712804 160.38063049 74.26069641 C160.90495667 74.55838928 161.42928284 74.85608215 161.96949768 75.16279602 C164.35378995 76.51285802 166.74213596 77.85558407 169.13063049 79.19819641 C169.95563049 79.66677063 170.78063049 80.13534485 171.63063049 80.61811829 C172.42984924 81.0660675 173.22906799 81.51401672 174.05250549 81.97554016 C174.78565979 82.38924866 175.51881409 82.80295715 176.27418518 83.22920227 C178.34803561 84.24473519 180.09957247 84.91114159 182.38063049 85.26069641 C185.1665316 84.32265859 185.1665316 84.32265859 187.38063049 82.26069641 C188.71613896 79.4144205 188.71613896 79.4144205 188.38063049 76.26069641 C184.71149553 71.91025206 180.43102189 69.24494065 175.56813049 66.44819641 C174.8752594 66.04149719 174.18238831 65.63479797 173.46852112 65.21577454 C171.77653997 64.22392352 170.07913158 63.24134043 168.38063049 62.26069641 C169.67005365 61.38239368 170.96235731 60.50832019 172.25563049 59.63569641 C173.06773987 59.08526672 173.87984924 58.53483704 174.71656799 57.96772766 C177.38063049 56.26069641 177.38063049 56.26069641 180.16969299 54.77241516 C185.7541147 51.92389459 185.7541147 51.92389459 188.75563049 46.63569641 C188.61815524 43.26306377 188.61815524 43.26306377 186.88063049 40.76069641 C184.04881999 39.06161011 182.61128189 39.12470358 179.41334534 39.66841125 C175.39702843 40.83867126 171.97045248 43.12579874 168.44313049 45.32319641 C167.66389221 45.79563782 166.88465393 46.26807922 166.08180237 46.75483704 C164.17474309 47.9131123 162.2749451 49.08173524 160.38063049 50.26069641 C160.40157776 49.5849054 160.42252502 48.90911438 160.44410706 48.21284485 C160.52734692 45.14561387 160.57931515 42.07862059 160.63063049 39.01069641 C160.66414612 37.94721985 160.69766174 36.88374329 160.73219299 35.78804016 C160.74508362 34.76323547 160.75797424 33.73843079 160.77125549 32.68257141 C160.79220276 31.73994446 160.81315002 30.7973175 160.83473206 29.8261261 C160.24521564 26.4956753 158.99394491 25.33530653 156.38063049 23.26069641 C151.87161041 22.35889239 150.17549804 23.80838485 147.38063049 27.26069641 Z M243.38063049 27.26069641 C242.83388251 29.86091764 242.83388251 29.86091764 242.99000549 32.68257141 C243.00289612 33.7073761 243.01578674 34.73218079 243.02906799 35.78804016 C243.07934143 37.383255 243.07934143 37.383255 243.13063049 39.01069641 C243.15770081 40.62911438 243.15770081 40.62911438 243.18531799 42.28022766 C243.23241634 44.94128429 243.29817449 47.60053896 243.38063049 50.26069641 C242.83124817 49.92747375 242.28186584 49.5942511 241.71583557 49.25093079 C239.21495656 47.74275705 236.70430942 46.25165166 234.19313049 44.76069641 C233.32881409 44.23604797 232.46449768 43.71139954 231.57398987 43.17085266 C230.73287659 42.6745636 229.89176331 42.17827454 229.02516174 41.66694641 C228.25534973 41.20610657 227.48553772 40.74526672 226.69239807 40.27046204 C224.03058927 39.10780059 222.2569699 38.95814326 219.38063049 39.26069641 C216.86056205 40.69730952 216.86056205 40.69730952 215.38063049 43.26069641 C215.2452663 46.72997744 215.2452663 46.72997744 216.38063049 50.26069641 C219.0931059 52.6905948 219.0931059 52.6905948 222.56813049 54.44819641 C223.69606018 55.0811261 224.82398987 55.71405579 225.98609924 56.36616516 C227.10629456 56.99136047 228.22648987 57.61655579 229.38063049 58.26069641 C231.40897374 59.55697224 233.39371555 60.90091092 235.38063049 62.26069641 C234.88136047 62.54791565 234.38209045 62.83513489 233.86769104 63.13105774 C231.59832296 64.44023754 229.33321808 65.7566257 227.06813049 67.07319641 C226.2824469 67.52501282 225.49676331 67.97682922 224.68727112 68.44233704 C223.55128479 69.1045929 223.55128479 69.1045929 222.39234924 69.78022766 C221.34760437 70.38507996 221.34760437 70.38507996 220.28175354 71.00215149 C218.33744781 72.28928338 216.83779121 73.43675379 215.38063049 75.26069641 C215.2203765 78.80648327 215.2203765 78.80648327 216.38063049 82.26069641 C218.38063049 84.59402974 218.38063049 84.59402974 221.38063049 85.26069641 C226.59484632 83.32215973 231.4353895 80.7230058 236.31813049 78.07319641 C237.00197815 77.70516907 237.68582581 77.33714172 238.39039612 76.95796204 C240.05523121 76.06151237 241.71813698 75.16148118 243.38063049 74.26069641 C243.35444641 74.93648743 243.32826233 75.61227844 243.30128479 76.30854797 C243.19723786 79.37569353 243.13228103 82.44246799 243.06813049 85.51069641 C243.02623596 86.57417297 242.98434143 87.63764954 242.94117737 88.73335266 C242.6891093 94.90077007 242.6891093 94.90077007 245.73609924 99.99897766 C248.28739215 101.46076409 248.28739215 101.46076409 251.00563049 101.19819641 C253.60376398 100.1726174 254.68331767 99.45894491 256.38063049 97.26069641 C256.79391605 94.74707781 256.79391605 94.74707781 256.67359924 91.93647766 C256.66393127 90.90845032 256.65426331 89.88042297 256.64430237 88.82124329 C256.61916565 87.74938782 256.59402893 86.67753235 256.56813049 85.57319641 C256.55459534 84.48973938 256.54106018 83.40628235 256.52711487 82.28999329 C256.49173693 79.61306236 256.44237238 76.93712804 256.38063049 74.26069641 C257.12248596 74.67037659 257.86434143 75.08005676 258.62867737 75.50215149 C260.51027383 76.53790389 262.39694957 77.56444988 264.28688049 78.58491516 C266.25585253 79.65144168 268.21546654 80.73556804 270.16188049 81.84272766 C271.01781799 82.31065735 271.87375549 82.77858704 272.75563049 83.26069641 C273.52648987 83.69382141 274.29734924 84.12694641 275.09156799 84.57319641 C278.18465641 85.5021786 279.58385407 84.75729918 282.38063049 83.26069641 C284.60851264 81.38802311 284.60851264 81.38802311 285.00563049 78.51069641 C284.17495447 74.19118109 282.49704783 73.24970601 278.95875549 70.85054016 C274.1548174 67.88811167 269.29790131 65.03075897 264.38063049 62.26069641 C265.24945862 61.72960266 266.11828674 61.19850891 267.01344299 60.65132141 C268.17754292 59.93784081 269.34160331 59.22429569 270.50563049 58.51069641 C271.07539612 58.16264954 271.64516174 57.81460266 272.23219299 57.45600891 C273.3812921 56.75087991 274.52761545 56.04120804 275.67115784 55.32710266 C277.35351318 54.27761278 279.04670259 53.24555481 280.74000549 52.21382141 C283.70573765 50.41748126 283.70573765 50.41748126 284.50563049 46.76069641 C284.66360139 43.27561646 284.66360139 43.27561646 282.88063049 40.76069641 C280.04881999 39.06161011 278.61128189 39.12470358 275.41334534 39.66841125 C271.39702843 40.83867126 267.97045248 43.12579874 264.44313049 45.32319641 C263.66389221 45.79563782 262.88465393 46.26807922 262.08180237 46.75483704 C260.17474309 47.9131123 258.2749451 49.08173524 256.38063049 50.26069641 C256.40157776 49.5849054 256.42252502 48.90911438 256.44410706 48.21284485 C256.52734692 45.14561387 256.57931515 42.07862059 256.63063049 39.01069641 C256.66414612 37.94721985 256.69766174 36.88374329 256.73219299 35.78804016 C256.74508362 34.76323547 256.75797424 33.73843079 256.77125549 32.68257141 C256.79220276 31.73994446 256.81315002 30.7973175 256.83473206 29.8261261 C256.24521564 26.4956753 254.99394491 25.33530653 252.38063049 23.26069641 C247.87161041 22.35889239 246.17549804 23.80838485 243.38063049 27.26069641 Z " fill="#000000" transform="translate(169.61936950683594,293.7393035888672)"/>
<path d="M0 0 C62.08408791 -1.54858269 117.07003727 21.89094923 161.81787109 64.06201172 C162.55005859 64.75166016 163.28224609 65.44130859 164.03662109 66.15185547 C191.00930022 92.32177629 210.43138345 129.65336586 218.81787109 166.06201172 C218.81787109 167.05201172 218.81787109 168.04201172 218.81787109 169.06201172 C220.78578613 169.03844604 220.78578613 169.03844604 222.79345703 169.0144043 C227.66123311 168.9601014 232.52898241 168.92566018 237.39697266 168.8972168 C239.50378929 168.88213103 241.61057453 168.86165979 243.71728516 168.83569336 C246.74568429 168.79930119 249.77366818 168.78228322 252.80224609 168.76904297 C253.74404724 168.75355911 254.68584839 168.73807526 255.65618896 168.72212219 C256.53679993 168.7218956 257.41741089 168.72166901 258.32470703 168.72143555 C259.48386627 168.71144279 259.48386627 168.71144279 260.66644287 168.70124817 C263.42565541 169.1639284 264.78585556 170.16643709 266.81787109 172.06201172 C267.90977132 175.41050574 268.26780329 177.16974752 266.66162109 180.35498047 C264.44953036 183.60281707 261.96519068 186.54875885 259.38037109 189.49951172 C258.2982407 190.74812372 257.21621228 191.9968241 256.13427734 193.24560547 C255.58271973 193.87966309 255.03116211 194.5137207 254.46289062 195.16699219 C251.89991107 198.11947769 249.35958613 201.09122499 246.81787109 204.06201172 C245.8218573 205.22353862 244.82576324 206.3849967 243.82958984 207.54638672 C241.78713142 209.92892212 239.74853728 212.31469547 237.71240234 214.70263672 C219.60729839 235.91701487 219.60729839 235.91701487 215.75537109 236.62451172 C207.30360077 235.41711596 202.16779903 226.1581484 197.10302734 219.85107422 C194.91326308 217.17843887 192.64675911 214.61366294 190.31787109 212.06201172 C186.40581488 207.76961671 182.73873386 203.31880526 179.08740234 198.80419922 C176.11981745 195.21858029 173.00801924 191.77914941 169.86083984 188.35107422 C162.93301099 180.58872679 162.93301099 180.58872679 162.81787109 175.06201172 C164.94830588 170.49679433 164.94830588 170.49679433 167.81787109 169.06201172 C170.44414242 168.97533917 173.04349592 168.94641036 175.66943359 168.96435547 C176.44346527 168.96577042 177.21749695 168.96718536 178.01498413 168.96864319 C180.49098551 168.97424769 182.96689697 168.98680089 185.44287109 168.99951172 C187.11995312 169.00452614 188.79703657 169.00908915 190.47412109 169.01318359 C194.58873915 169.02421857 198.70328987 169.04148618 202.81787109 169.06201172 C186.32289068 114.3940389 154.85685514 68.80708991 103.9296875 41.03222656 C85.80520925 31.31720887 66.90636416 24.43277437 46.81787109 20.06201172 C46.00398926 19.8826709 45.19010742 19.70333008 44.3515625 19.51855469 C-5.46424601 9.13037511 -60.28160274 21.54408393 -102.55712891 49.06201172 C-113.88964224 56.94275813 -124.22469183 65.51961196 -134.18212891 75.06201172 C-134.93365234 75.77228516 -135.68517578 76.48255859 -136.45947266 77.21435547 C-141.85223201 82.43625512 -146.60498187 88.12040351 -151.18212891 94.06201172 C-151.84704346 94.91303467 -151.84704346 94.91303467 -152.52539062 95.78125 C-175.91539335 126.05880661 -190.31590591 164.11323877 -192.56103516 202.31982422 C-192.63354492 203.44775391 -192.70605469 204.57568359 -192.78076172 205.73779297 C-192.92116099 208.00213186 -193.03972064 210.26795193 -193.13427734 212.53466797 C-193.61292679 220.39715334 -193.61292679 220.39715334 -196.52978516 223.80419922 C-200.20281394 225.54604792 -202.32370154 225.20524946 -206.18212891 224.06201172 C-208.66595998 221.68742321 -209.15657144 220.26922766 -209.58056641 216.83154297 C-209.27949788 166.00114029 -192.11170745 115.37792361 -158.18212891 77.06201172 C-157.16505859 75.88251953 -157.16505859 75.88251953 -156.12744141 74.67919922 C-118.28709525 31.57169865 -66.21550332 5.2258617 -8.93212891 0.31201172 C-5.95469393 0.16440007 -2.97963479 0.08467523 0 0 Z " fill="#000000" transform="translate(209.18212890625,5.93798828125)"/>
</svg>
