<?xml version="1.0" encoding="UTF-8"?>
<svg version="1.1" xmlns="http://www.w3.org/2000/svg" width="512" height="512">
<path d="M0 0 C5.71741921 3.20104341 8.45804891 7.63914928 11.8125 13.125 C13.39645271 15.5759731 15.00883574 18.00767635 16.625 20.4375 C17.04910156 21.07703613 17.47320312 21.71657227 17.91015625 22.37548828 C24.40609031 32.09737755 31.55353322 41.08696768 39.52734375 49.65234375 C41.44153883 51.72360099 43.25837611 53.83414701 45.0625 56 C70.49282073 85.04628709 109.02597961 108.01542922 147.8125 112.125 C190.45144864 113.89625805 226.47850985 101.86762464 259.8125 75.125 C260.35648437 74.69670898 260.90046875 74.26841797 261.4609375 73.82714844 C275.95687229 62.36922983 289.71376474 48.90958612 300.8125 34.125 C301.79530293 32.83573164 302.77839918 31.54668686 303.76171875 30.2578125 C308.22106394 24.3811507 312.60934748 18.48223694 316.75 12.375 C319.98743367 7.69172217 323.49619608 4.30441104 328.8125 2.125 C336.19234004 1.26159507 343.10271727 0.9931849 349.19921875 5.640625 C354.8925656 10.87905552 357.30304045 15.62477399 358.1875 23.4375 C357.01065798 35.0097799 349.39767772 43.97387373 342.8125 53.125 C344.52372564 56.75901577 346.61183887 59.25137103 349.375 62.1875 C353.67718399 66.83683429 357.72690823 71.61963032 361.7109375 76.546875 C365.32223204 80.97708763 368.96958892 85.38170574 373.125 89.3125 C377.50693283 94.01902044 377.29476036 99.79663861 377.19140625 105.89453125 C376.46758967 112.0656272 373.33116599 115.94958955 368.8125 120 C362.674439 124.34779321 357.18150497 124.92530096 349.8125 124.125 C339.4635834 121.35661836 332.51412557 110.92025049 326.1640625 102.98828125 C322.23129538 98.19971264 318.02313996 93.66967821 313.8125 89.125 C310.86604008 90.44231577 308.93413996 91.8246069 306.75 94.1875 C302.13172137 98.9436377 296.97413614 102.97910752 291.8125 107.125 C289.8320344 108.74841668 287.85283004 110.37337342 285.875 112 C277.20497312 119.125 277.20497312 119.125 274.8125 119.125 C277.24765724 123.70958201 279.68546434 128.29274685 282.125 132.875 C282.48643097 133.55406403 282.84786194 134.23312805 283.22024536 134.93276978 C288.27436022 144.42382201 293.37660333 153.88456295 298.62426758 163.27050781 C299.03572021 164.01010742 299.44717285 164.74970703 299.87109375 165.51171875 C300.40174438 166.45857544 300.40174438 166.45857544 300.94311523 167.42456055 C304.03758802 173.47707471 303.97334206 181.40379602 301.9765625 187.8046875 C298.67151448 194.39260202 293.70524012 197.82741996 286.8125 200.125 C279.55669364 200.840031 273.82570931 200.39691154 267.8125 196.125 C262.37346882 190.98120188 259.10676201 184.56637545 255.6875 178 C254.55824678 175.86859423 253.42668423 173.7384106 252.29296875 171.609375 C251.7211084 170.53494141 251.14924805 169.46050781 250.56005859 168.35351562 C247.30836542 162.34619647 243.87044571 156.44483914 240.41943359 150.55029297 C239.9445752 149.73189941 239.4697168 148.91350586 238.98046875 148.0703125 C238.56047607 147.35375488 238.1404834 146.63719727 237.70776367 145.89892578 C236.8125 144.125 236.8125 144.125 236.8125 142.125 C236.22573486 142.34115967 235.63896973 142.55731934 235.03442383 142.7800293 C224.27066383 146.71416738 213.54046977 150.4344398 202.375 153.0625 C201.10910034 153.36063599 201.10910034 153.36063599 199.81762695 153.66479492 C194.82717261 154.79038243 189.89153667 155.51912083 184.8125 156.125 C184.82138245 156.72111084 184.83026489 157.31722168 184.8394165 157.93139648 C184.92822072 164.16103483 184.98837105 170.39049202 185.03222656 176.62060547 C185.05228577 178.94261993 185.07953991 181.26458423 185.11425781 183.58642578 C185.16302541 186.93274345 185.18552643 190.27839059 185.203125 193.625 C185.23409271 195.17078735 185.23409271 195.17078735 185.26568604 196.74780273 C185.26796434 204.14104733 184.03721747 209.40472461 179.05859375 215.1484375 C173.16870076 219.5499558 166.9532343 221.56740398 159.54296875 220.9296875 C152.33353698 219.41336342 147.84110853 215.69084217 143.79296875 209.80859375 C141.90413014 206.56520952 141.68975157 203.85612587 141.69897461 200.19458008 C141.69905014 199.19376907 141.69912567 198.19295807 141.69920349 197.16181946 C141.70436478 196.08361435 141.70952606 195.00540924 141.71484375 193.89453125 C141.71696617 192.23619514 141.71696617 192.23619514 141.71913147 190.5443573 C141.72473486 187.00871083 141.73728796 183.47312738 141.75 179.9375 C141.75501456 177.54231862 141.75957754 175.14713625 141.76367188 172.75195312 C141.77470539 166.87628053 141.79144684 161.00064477 141.8125 155.125 C140.98790283 155.07819092 140.16330566 155.03138184 139.3137207 154.9831543 C132.33403326 154.52696229 125.76021716 153.7231783 119 151.9375 C118.15832275 151.72262939 117.31664551 151.50775879 116.44946289 151.28637695 C110.05504296 149.59570414 103.88089873 147.47907095 97.7487793 145.00512695 C94.91861741 143.86565281 92.90025769 143.125 89.8125 143.125 C89.27846558 144.12575562 89.27846558 144.12575562 88.73364258 145.14672852 C84.77519634 152.55528382 80.79113422 159.94957512 76.784729 167.33227539 C75.84499918 169.06507371 74.90756557 170.79911669 73.97021484 172.53320312 C72.26489427 175.67584518 70.54178332 178.80799346 68.8125 181.9375 C68.29792236 182.89019775 67.78334473 183.84289551 67.25317383 184.82446289 C63.17431878 192.13751809 59.01760449 196.91465155 50.8828125 199.62109375 C44.50096797 201.17441063 38.54423789 200.3462367 32.8125 197.125 C27.11969811 192.9237122 23.95917819 188.12089524 22.8125 181.125 C21.29882448 166.4500441 34.7543674 149.74303073 41.6640625 137.66796875 C43.86432952 133.80547627 46.05294083 129.93707378 48.2109375 126.05078125 C48.71028809 125.15399658 49.20963867 124.25721191 49.72412109 123.33325195 C50.95986308 121.23632609 50.95986308 121.23632609 50.8125 119.125 C49.23533761 117.87466403 47.59748678 116.70057958 45.9375 115.5625 C41.03049295 112.08539102 36.57328589 108.35973208 32.15625 104.28515625 C30.01428469 102.31097823 27.83375251 100.39867764 25.625 98.5 C21.84401065 95.21184837 18.30507991 91.71580872 14.8125 88.125 C10.97424188 91.92061081 7.24271526 95.80113994 3.5625 99.75 C2.99112305 100.36101562 2.41974609 100.97203125 1.83105469 101.6015625 C-1.61486661 105.32060066 -4.82462384 109.12429649 -7.9375 113.125 C-12.975281 119.3465219 -18.06047429 123.9690742 -26.1875 125.1875 C-33.98599015 125.50185774 -39.84227052 122.95168339 -45.6796875 117.91796875 C-49.57104796 113.29067742 -50.60171577 109.0857966 -50.5625 103.125 C-50.57023437 101.949375 -50.57796875 100.77375 -50.5859375 99.5625 C-49.7929138 92.72072688 -45.96105313 88.3436975 -41.5625 83.375 C-41.02906982 82.76229248 -40.49563965 82.14958496 -39.94604492 81.51831055 C-36.83549361 77.95667105 -33.67725552 74.43976578 -30.5 70.9375 C-27.32342004 67.41766323 -24.19180027 63.86614922 -21.125 60.25 C-20.37089844 59.36570313 -19.61679688 58.48140625 -18.83984375 57.5703125 C-16.81424535 55.06449106 -16.81424535 55.06449106 -17.1875 51.125 C-18.01522712 49.29536635 -18.01522712 49.29536635 -19.234375 47.55078125 C-19.66564697 46.88771973 -20.09691895 46.2246582 -20.54125977 45.54150391 C-21.00201904 44.84718262 -21.46277832 44.15286133 -21.9375 43.4375 C-34.00059597 24.62574502 -34.00059597 24.62574502 -31.7109375 13.890625 C-29.54798152 7.56813828 -26.4277549 3.59851135 -20.5625 0.3125 C-13.35734218 -3.01539547 -7.31520897 -3.09872695 0 0 Z " fill="#000000" transform="translate(93.1875,171.875)"/>
</svg>
