<?xml version="1.0" encoding="UTF-8"?>
<svg version="1.1" xmlns="http://www.w3.org/2000/svg" width="500" height="500">
<path d="M0 0 C0.772229 -0.03432129 1.54445801 -0.06864258 2.34008789 -0.10400391 C8.34489343 -0.14946042 12.26471127 1.71140082 16.9375 5.4375 C21.68787685 10.55329045 22.28555504 14.67021408 22.22265625 21.4453125 C21.65533945 27.39825314 19.57262471 32.5298545 15.6875 37.0625 C14.82125 37.743125 14.82125 37.743125 13.9375 38.4375 C14.99467219 40.63316532 16.02292555 42.55026173 17.5 44.5 C20.3407588 50.30502884 20.68196068 56.91170486 18.9375 63.125 C16.42066632 69.46833195 12.63127568 74.23791218 6.36791992 77.02709961 C1.79891948 78.68121897 -2.33792849 78.82491734 -7.15625 78.73046875 C-8.40444519 78.72410149 -8.40444519 78.72410149 -9.67785645 78.71760559 C-12.30641593 78.70096307 -14.93417667 78.66333976 -17.5625 78.625 C-19.35675967 78.60993444 -21.1510315 78.59624933 -22.9453125 78.58398438 C-27.31801083 78.55110714 -31.69012053 78.49942722 -36.0625 78.4375 C-37.2977335 74.72729778 -36.99336088 71.45817311 -36.6887207 67.58935547 C-36.63677048 66.90923401 -36.58482025 66.22911255 -36.53129578 65.52838135 C-36.35767645 63.28649611 -36.17381964 61.04561598 -35.98828125 58.8046875 C-35.86187849 57.2457812 -35.73551078 55.68687206 -35.60917664 54.12796021 C-35.34262359 50.86432141 -35.06999501 47.60124793 -34.79418945 44.33837891 C-34.44161617 40.15191495 -34.11289013 35.96393786 -33.78974628 31.77511406 C-33.53737685 28.55703633 -33.26807497 25.34053934 -32.99403954 22.12424088 C-32.86539033 20.58014823 -32.74307675 19.03551439 -32.62716103 17.49041367 C-32.46369975 15.33395131 -32.27652413 13.18082158 -32.08325195 11.02685547 C-31.98252884 9.79981903 -31.88180573 8.57278259 -31.7780304 7.30856323 C-31.0625 4.4375 -31.0625 4.4375 -29.21379089 3.06521606 C-19.96323918 0.36603673 -9.57672804 0.2214163 0 0 Z M-13.0625 20.4375 C-13.3925 24.0675 -13.7225 27.6975 -14.0625 31.4375 C-7.90691761 30.44470605 -7.90691761 30.44470605 -2.5 27.625 C-0.77074537 24.99352556 -0.64474499 23.52888711 -1.0625 20.4375 C-2.1514661 19.12377745 -2.1514661 19.12377745 -4.8125 19.3125 C-8.38016812 19.36385376 -8.38016812 19.36385376 -13.0625 20.4375 Z M-15.0625 49.4375 C-15.0625 53.0675 -15.0625 56.6975 -15.0625 60.4375 C-9.04655271 58.84571031 -9.04655271 58.84571031 -3.9375 55.5625 C-2.80964111 52.82341412 -3.21004819 51.22734228 -4.0625 48.4375 C-8.02638638 48.36127142 -11.1898408 48.4693352 -15.0625 49.4375 Z M-20.0625 69.4375 C-19.0625 71.4375 -19.0625 71.4375 -19.0625 71.4375 Z " fill="#010101" transform="translate(140.0625,216.5625)"/>
<path d="M0 0 C6.52636494 6.89930008 6.72055962 13.66382342 6.5234375 22.703125 C6.21636357 26.0023844 5.73218732 27.51280239 4.1875 30.3125 C1.04168577 30.34138514 -2.10409469 30.35925923 -5.25 30.375 C-6.14783203 30.38337891 -7.04566406 30.39175781 -7.97070312 30.40039062 C-9.25170898 30.40522461 -9.25170898 30.40522461 -10.55859375 30.41015625 C-11.34935303 30.41539307 -12.1401123 30.42062988 -12.95483398 30.42602539 C-14.8125 30.3125 -14.8125 30.3125 -15.8125 29.3125 C-15.7265625 27.52734375 -15.7265625 27.52734375 -15.4375 25.25 C-15.33824219 24.445625 -15.23898437 23.64125 -15.13671875 22.8125 C-15.02972656 21.9875 -14.92273438 21.1625 -14.8125 20.3125 C-14.62489874 18.79167915 -14.43739006 17.27084688 -14.25 15.75 C-14.105625 14.615625 -13.96125 13.48125 -13.8125 12.3125 C-16.96125313 12.82508772 -19.12964137 13.49686331 -21.21875 15.9921875 C-27.5911049 26.59982705 -29.72557968 40.33480224 -27.125 52.4375 C-26.04784489 55.43817155 -26.04784489 55.43817155 -23.5 56.9375 C-19.84788066 57.44709805 -18.77782221 56.46389846 -15.8125 54.3125 C-14.09424007 52.27189559 -12.53341422 50.29117084 -11 48.125 C-10.59330078 47.56619141 -10.18660156 47.00738281 -9.76757812 46.43164062 C-8.77436136 45.06450695 -7.79227066 43.6893019 -6.8125 42.3125 C-3.071835 42.86820855 -1.4699251 44.322285 1 47.125 C1.93779297 48.15560547 1.93779297 48.15560547 2.89453125 49.20703125 C4.1875 51.3125 4.1875 51.3125 4.07421875 53.2421875 C0.073934 62.58205938 -6.08365474 70.5711186 -15.66015625 74.47265625 C-22.47608336 76.28854761 -30.76296598 76.69602592 -37.3125 73.75 C-45.06910603 68.97670398 -48.64421687 61.97439791 -50.8125 53.3125 C-53.59629699 37.15834959 -50.25050168 21.90434036 -41 8.4375 C-30.57571727 -5.14149987 -15.01954822 -9.01172893 0 0 Z " fill="#010101" transform="translate(393.8125,219.6875)"/>
<path d="M0 0 C9.34112371 5.64961434 15.27195801 13.32142776 17.9296875 24.015625 C19.35932361 34.34799508 16.48804987 43.1174231 10.2734375 51.375 C4.61266309 57.55280064 -2.95875818 61.85221239 -11.35546875 62.61328125 C-21.56372245 62.87154599 -29.18334887 60.86803358 -37.1015625 54.25 C-43.98651468 47.61680283 -47.76052892 39.7829915 -47.9765625 30.1875 C-47.85390725 20.98835647 -44.53661124 13.5969459 -38.4140625 6.8125 C-27.68830005 -2.9155171 -13.7427246 -6.5745925 0 0 Z M-19.0390625 8.0625 C-21.00744194 10.25222477 -21.00744194 10.25222477 -20.6015625 13 C-19.86188337 15.51905125 -19.86188337 15.51905125 -17.7265625 17.375 C-14.7265625 17.70833333 -14.7265625 17.70833333 -11.7265625 17.375 C-9.42828938 15.49561828 -9.42828938 15.49561828 -9.4140625 12.4375 C-9.48009041 9.42825956 -9.48009041 9.42825956 -10.9765625 7.5 C-14.08267958 5.50321045 -16.18380842 5.97893621 -19.0390625 8.0625 Z M-34.6015625 16.4375 C-36.37438433 19.49069315 -35.41891556 22.03911708 -34.7265625 25.375 C-30.11646762 26.54508745 -30.11646762 26.54508745 -25.7890625 25.25 C-24.36589259 22.73852369 -24.29981734 21.21996772 -24.7265625 18.375 C-25.80989583 16.45833333 -25.80989583 16.45833333 -27.7265625 15.375 C-30.57153022 14.94825484 -32.09008619 15.01433009 -34.6015625 16.4375 Z M-4.0390625 17.0625 C-6.00744194 19.25222477 -6.00744194 19.25222477 -5.6015625 22 C-4.86188337 24.51905125 -4.86188337 24.51905125 -2.7265625 26.375 C0.23112927 26.87510524 0.23112927 26.87510524 3.2734375 26.375 C5.3519983 24.79804368 5.3519983 24.79804368 6.2734375 22.375 C6.27978996 19.73962492 6.27978996 19.73962492 5.2734375 17.375 C1.60735782 14.93094688 -0.36442812 14.38101005 -4.0390625 17.0625 Z M-18.7265625 27.375 C-19.05999801 29.91707971 -19.05999801 29.91707971 -18.7265625 32.375 C-17.67345973 33.64503323 -17.67345973 33.64503323 -15.2890625 33.5625 C-12.55921575 33.64339983 -12.55921575 33.64339983 -10.7265625 31.375 C-11.04697647 28.77219432 -11.04697647 28.77219432 -11.7265625 26.375 C-15.21238106 25.1729936 -15.40648594 25.16161563 -18.7265625 27.375 Z M-35.7265625 35.375 C-36.22666774 38.33269177 -36.22666774 38.33269177 -35.7265625 41.375 C-34.14960618 43.4535608 -34.14960618 43.4535608 -31.7265625 44.375 C-28.35619939 44.13425978 -27.13858229 43.78701979 -24.7265625 41.375 C-24.39322917 38.375 -24.39322917 38.375 -24.7265625 35.375 C-26.66988582 32.99505632 -26.66988582 32.99505632 -30.2265625 33.125 C-33.78323918 32.99505632 -33.78323918 32.99505632 -35.7265625 35.375 Z M-4.6640625 35.125 C-5.89870309 37.27245641 -5.89870309 37.27245641 -5.6015625 39.4375 C-4.54842587 41.7694454 -3.88569119 42.96039844 -1.7265625 44.375 C1.35677083 44.375 1.35677083 44.375 4.2734375 43.375 C6.56981529 40.61604365 6.56981529 40.61604365 6.0234375 37.8125 C5.43535698 35.22499433 5.43535698 35.22499433 3.2734375 33.375 C-1.10922834 32.80773606 -1.10922834 32.80773606 -4.6640625 35.125 Z M-18.9765625 43 C-21.08653835 45.3221241 -21.08653835 45.3221241 -20.4765625 48.625 C-20.2290625 49.5325 -19.9815625 50.44 -19.7265625 51.375 C-16.94830794 52.66276153 -16.94830794 52.66276153 -13.7265625 53.375 C-11.2265625 52.54166667 -11.2265625 52.54166667 -9.7265625 50.375 C-9.05989583 47.375 -9.05989583 47.375 -9.7265625 44.375 C-11.4374836 42.40401574 -11.4374836 42.40401574 -13.7265625 41.375 C-16.78379795 41.08225472 -16.78379795 41.08225472 -18.9765625 43 Z " fill="#020202" transform="translate(238.7265625,222.625)"/>
<path d="M0 0 C1.43803482 -0.00143509 1.43803482 -0.00143509 2.90512085 -0.00289917 C4.90663723 -0.00357345 6.90815591 -0.0017723 8.90966797 0.00244141 C11.98800443 0.00786015 15.0661989 0.00244083 18.14453125 -0.00390625 C20.09635449 -0.00324649 22.04817764 -0.00196746 24 0 C25.38416611 -0.00303635 25.38416611 -0.00303635 26.79629517 -0.00613403 C33.22094784 0.01782284 33.22094784 0.01782284 34.3359375 1.1328125 C34.43591392 3.62340164 34.47473377 6.08008645 34.4609375 8.5703125 C34.46673828 9.61155273 34.46673828 9.61155273 34.47265625 10.67382812 C34.46257744 15.87953262 34.46257744 15.87953262 33.3359375 18.1328125 C24.9209375 18.6278125 24.9209375 18.6278125 16.3359375 19.1328125 C16.3565625 21.3603125 16.3771875 23.5878125 16.3984375 25.8828125 C16.4252211 34.09700829 16.18371493 42.29918444 15.8984375 50.5078125 C15.85920166 51.68311523 15.81996582 52.85841797 15.77954102 54.06933594 C15.12100914 71.99252594 15.12100914 71.99252594 13.3359375 79.1328125 C7.0659375 79.1328125 0.7959375 79.1328125 -5.6640625 79.1328125 C-6.83853456 75.60939632 -6.70506729 72.53989239 -6.578125 68.88671875 C-6.55720291 68.16720032 -6.53628082 67.44768188 -6.51472473 66.70635986 C-6.44506393 64.36913564 -6.36731589 62.03226353 -6.2890625 59.6953125 C-6.23941139 58.10051242 -6.19001391 56.50570443 -6.14086914 54.91088867 C-5.78511424 43.64445266 -5.32108167 32.38601311 -4.6640625 21.1328125 C-5.37691406 21.2771875 -6.08976562 21.4215625 -6.82421875 21.5703125 C-7.78199219 21.7559375 -8.73976563 21.9415625 -9.7265625 22.1328125 C-10.66628906 22.3184375 -11.60601562 22.5040625 -12.57421875 22.6953125 C-15.97216665 23.17643787 -19.23664486 23.20127527 -22.6640625 23.1328125 C-22.69301475 19.84116421 -22.7108448 16.54954851 -22.7265625 13.2578125 C-22.73913086 11.85208984 -22.73913086 11.85208984 -22.75195312 10.41796875 C-22.75517578 9.52207031 -22.75839844 8.62617188 -22.76171875 7.703125 C-22.76695557 6.87570801 -22.77219238 6.04829102 -22.77758789 5.19580078 C-22.6640625 3.1328125 -22.6640625 3.1328125 -21.6640625 1.1328125 C-14.60791153 -0.22404236 -7.16352253 -0.01606655 0 0 Z M-3.6640625 66.1328125 C-3.6640625 67.7828125 -3.6640625 69.4328125 -3.6640625 71.1328125 C-3.3340625 71.1328125 -3.0040625 71.1328125 -2.6640625 71.1328125 C-2.6640625 69.4828125 -2.6640625 67.8328125 -2.6640625 66.1328125 C-2.9940625 66.1328125 -3.3240625 66.1328125 -3.6640625 66.1328125 Z " fill="#000000" transform="translate(280.6640625,215.8671875)"/>
<path d="M0 0 C0.78552246 0.01047363 1.57104492 0.02094727 2.38037109 0.03173828 C3.23115234 0.03818359 4.08193359 0.04462891 4.95849609 0.05126953 C6.29267578 0.07640625 6.29267578 0.07640625 7.65380859 0.10205078 C8.99958984 0.11558594 8.99958984 0.11558594 10.37255859 0.12939453 C12.59157445 0.15300108 14.81005937 0.18592768 17.02880859 0.22705078 C17.17016612 10.74346211 16.78635932 21.16397538 16.17404175 31.66030884 C15.40314746 44.95276818 14.79532471 58.17878227 15.01513672 71.49829102 C15.02867187 72.37428955 15.04220703 73.25028809 15.05615234 74.15283203 C15.08310181 75.27298706 15.08310181 75.27298706 15.1105957 76.41577148 C15.02880859 78.22705078 15.02880859 78.22705078 14.02880859 80.22705078 C7.09880859 80.22705078 0.16880859 80.22705078 -6.97119141 80.22705078 C-7.17155227 63.06280313 -7.09489394 45.98901826 -6.03369141 28.85205078 C-5.99012512 28.14429504 -5.94655884 27.43653931 -5.90167236 26.70733643 C-5.62020943 22.21165692 -5.30247083 17.71937257 -4.97119141 13.22705078 C-4.89884277 12.12329102 -4.82649414 11.01953125 -4.75195312 9.88232422 C-4.6786377 8.89006836 -4.60532227 7.8978125 -4.52978516 6.87548828 C-4.46976318 6.01874512 -4.40974121 5.16200195 -4.34790039 4.27929688 C-3.82820311 1.44807503 -2.90411893 0.33450961 0 0 Z M-0.97119141 4.22705078 C-1.30119141 6.86705078 -1.63119141 9.50705078 -1.97119141 12.22705078 C0.57909843 10.95190587 0.9596257 9.82363781 2.02880859 7.22705078 C2.02880859 6.23705078 2.02880859 5.24705078 2.02880859 4.22705078 C1.03880859 4.22705078 0.04880859 4.22705078 -0.97119141 4.22705078 Z M-1.97119141 18.22705078 C-1.97119141 20.20705078 -1.97119141 22.18705078 -1.97119141 24.22705078 C-1.64119141 24.22705078 -1.31119141 24.22705078 -0.97119141 24.22705078 C-0.97119141 22.24705078 -0.97119141 20.26705078 -0.97119141 18.22705078 C-1.30119141 18.22705078 -1.63119141 18.22705078 -1.97119141 18.22705078 Z " fill="#010101" transform="translate(171.97119140625,214.77294921875)"/>
<path d="M0 0 C1.10589478 0.00616333 1.10589478 0.00616333 2.23413086 0.01245117 C3.0352832 0.01438477 3.83643555 0.01631836 4.66186523 0.01831055 C5.49911133 0.03055664 6.33635742 0.04280273 7.19897461 0.05541992 C8.46064453 0.05638672 8.46064453 0.05638672 9.74780273 0.05737305 C15.99624277 0.10268808 15.99624277 0.10268808 17.13647461 1.24291992 C17.67373142 11.34216281 16.86691533 21.51837716 16.28170776 31.60073853 C15.51333152 44.91823748 14.90256192 58.16952516 15.12280273 71.51391602 C15.13633789 72.38999512 15.14987305 73.26607422 15.16381836 74.16870117 C15.19076782 75.2888562 15.19076782 75.2888562 15.21826172 76.43164062 C15.13647461 78.24291992 15.13647461 78.24291992 14.13647461 80.24291992 C7.20647461 80.24291992 0.27647461 80.24291992 -6.86352539 80.24291992 C-7.06388626 63.07867227 -6.98722792 46.0048874 -5.92602539 28.86791992 C-5.88245911 28.16016418 -5.83889282 27.45240845 -5.79400635 26.72320557 C-5.51254341 22.22752606 -5.19480482 17.73524171 -4.86352539 13.24291992 C-4.79117676 12.13916016 -4.71882813 11.03540039 -4.64428711 9.89819336 C-4.57097168 8.9059375 -4.49765625 7.91368164 -4.42211914 6.89135742 C-4.36209717 6.03461426 -4.3020752 5.17787109 -4.24023438 4.29516602 C-3.73466269 1.54089798 -2.83955158 0.37014985 0 0 Z M-0.86352539 4.24291992 C-1.19352539 6.88291992 -1.52352539 9.52291992 -1.86352539 12.24291992 C0.68676444 10.96777501 1.06729172 9.83950695 2.13647461 7.24291992 C2.13647461 6.25291992 2.13647461 5.26291992 2.13647461 4.24291992 C1.14647461 4.24291992 0.15647461 4.24291992 -0.86352539 4.24291992 Z M-1.86352539 18.24291992 C-1.86352539 20.22291992 -1.86352539 22.20291992 -1.86352539 24.24291992 C-1.53352539 24.24291992 -1.20352539 24.24291992 -0.86352539 24.24291992 C-0.86352539 22.26291992 -0.86352539 20.28291992 -0.86352539 18.24291992 C-1.19352539 18.24291992 -1.52352539 18.24291992 -1.86352539 18.24291992 Z " fill="#010101" transform="translate(324.863525390625,214.757080078125)"/>
<path d="M0 0 C3.79693103 2.00592583 7.00240025 4.12230637 9 8 C9.1875 10.4375 9.1875 10.4375 8 13 C4.0769191 16.26329002 1.16424865 18 -4 18 C-4.66 16.02 -5.32 14.04 -6 12 C-6.86951294 12.00785522 -6.86951294 12.00785522 -7.7565918 12.01586914 C-10.4002167 12.03674334 -13.04382421 12.04969327 -15.6875 12.0625 C-17.05551758 12.07506836 -17.05551758 12.07506836 -18.45117188 12.08789062 C-19.33740234 12.09111328 -20.22363281 12.09433594 -21.13671875 12.09765625 C-21.94842529 12.10289307 -22.76013184 12.10812988 -23.59643555 12.11352539 C-26.14864673 11.9929791 -28.51026137 11.559949 -31 11 C-28.56050867 9.37367245 -26.47563199 8.26566893 -23.8125 7.125 C-20.04610874 5.48450005 -16.37616367 3.71690758 -12.7265625 1.83203125 C-8.56748236 -0.17223135 -4.54037593 -0.62774137 0 0 Z " fill="#030303" transform="translate(261,276)"/>
</svg>
